<svg xmlns="http://www.w3.org/2000/svg" xmlns:xlink="http://www.w3.org/1999/xlink" id="Layer_1" x="0" y="0" enable-background="new 0 0 645 200" version="1.1" viewBox="0 0 645 200" xml:space="preserve"><rect width="74" height="75" x="102.5" y="48" fill="#020202" stroke="#000" stroke-miterlimit="10"/><rect width="74" height="75" x="176.5" y="48" fill="#323232" stroke="#000" stroke-miterlimit="10"/><rect width="74" height="75" x="250.5" y="48" fill="#575757" stroke="#000" stroke-miterlimit="10"/><rect width="74" height="75" x="324.5" y="48" fill="#A2A2A2" stroke="#000" stroke-miterlimit="10"/><rect width="74" height="75" x="398.5" y="48" fill="#D1D1D1" stroke="#000" stroke-miterlimit="10"/><rect width="74" height="75" x="471.5" y="48" fill="#FFF" stroke="#000" stroke-miterlimit="10"/><rect width="17.5" height="25.5" x="133" y="133.2" fill="none"/><text font-family="'TheSansMono-W5Regular'" font-size="18" transform="matrix(1 0 0 1 133 146.3896)">0</text><rect width="34.5" height="25.5" x="204.8" y="133.2" fill="none"/><text font-family="'TheSansMono-W5Regular'" font-size="18" transform="matrix(1 0 0 1 204.75 146.3896)">50</text><rect width="34.5" height="25.5" x="271.2" y="134.2" fill="none"/><text font-family="'TheSansMono-W5Regular'" font-size="18" transform="matrix(1 0 0 1 271.25 147.3896)">87</text><rect width="34.5" height="25.5" x="344.2" y="134.2" fill="none"/><text font-family="'TheSansMono-W5Regular'" font-size="18" transform="matrix(1 0 0 1 344.25 147.3896)">167</text><rect width="34.5" height="25.5" x="418.2" y="133.2" fill="none"/><text font-family="'TheSansMono-W5Regular'" font-size="18" transform="matrix(1 0 0 1 418.25 146.3896)">209</text><rect width="34.5" height="25.5" x="493.2" y="134.2" fill="none"/><text font-family="'TheSansMono-W5Regular'" font-size="18" transform="matrix(1 0 0 1 493.25 147.3896)">255</text></svg>